<mxfile host="app.diagrams.net" modified="2021-05-19T10:57:46.433Z" agent="5.0 (Windows NT 10.0; WOW64) AppleWebKit/537.36 (KHTML, like Gecko) Chrome/90.0.4430.212 Safari/537.36" etag="ga6lxpXPqk-k4Qv_gBV5" version="14.6.13" type="github">
  <diagram id="yqhuKE_aSyiTVxDunJMB" name="Page-1">
    <mxGraphModel dx="2506" dy="911" grid="1" gridSize="10" guides="1" tooltips="1" connect="1" arrows="1" fold="1" page="1" pageScale="1" pageWidth="1169" pageHeight="827" math="0" shadow="0">
      <root>
        <mxCell id="0" />
        <mxCell id="1" parent="0" />
        <mxCell id="mUKIcsrmBRNox3fBGK3o-1" value="" style="shape=mxgraph.cisco.routers.router;html=1;pointerEvents=1;dashed=0;fillColor=#036897;strokeColor=#ffffff;strokeWidth=2;verticalLabelPosition=bottom;verticalAlign=top;align=center;outlineConnect=0;" vertex="1" parent="1">
          <mxGeometry x="170" y="240" width="100" height="61" as="geometry" />
        </mxCell>
        <mxCell id="mUKIcsrmBRNox3fBGK3o-3" value="" style="shape=mxgraph.cisco.switches.workgroup_switch;html=1;pointerEvents=1;dashed=0;fillColor=#08c2cc;strokeColor=#ffffff;strokeWidth=2;verticalLabelPosition=bottom;verticalAlign=top;align=center;outlineConnect=0;" vertex="1" parent="1">
          <mxGeometry x="420" y="420.75" width="101" height="50" as="geometry" />
        </mxCell>
        <mxCell id="mUKIcsrmBRNox3fBGK3o-4" value="" style="shape=mxgraph.cisco.switches.workgroup_switch;html=1;pointerEvents=1;dashed=0;fillColor=#08c2cc;strokeColor=#ffffff;strokeWidth=2;verticalLabelPosition=bottom;verticalAlign=top;align=center;outlineConnect=0;" vertex="1" parent="1">
          <mxGeometry x="420" y="520.75" width="101" height="50" as="geometry" />
        </mxCell>
        <mxCell id="mUKIcsrmBRNox3fBGK3o-10" value="" style="shape=mxgraph.cisco.switches.workgroup_switch;html=1;pointerEvents=1;dashed=0;fillColor=#08c2cc;strokeColor=#ffffff;strokeWidth=2;verticalLabelPosition=bottom;verticalAlign=top;align=center;outlineConnect=0;" vertex="1" parent="1">
          <mxGeometry x="594" y="262.25" width="101" height="50" as="geometry" />
        </mxCell>
        <mxCell id="mUKIcsrmBRNox3fBGK3o-11" value="" style="shape=mxgraph.cisco.switches.workgroup_switch;html=1;pointerEvents=1;dashed=0;fillColor=#08c2cc;strokeColor=#ffffff;strokeWidth=2;verticalLabelPosition=bottom;verticalAlign=top;align=center;outlineConnect=0;" vertex="1" parent="1">
          <mxGeometry x="594" y="362.25" width="101" height="50" as="geometry" />
        </mxCell>
        <mxCell id="mUKIcsrmBRNox3fBGK3o-12" value="" style="shape=mxgraph.cisco.switches.workgroup_switch;html=1;pointerEvents=1;dashed=0;fillColor=#08c2cc;strokeColor=#ffffff;strokeWidth=2;verticalLabelPosition=bottom;verticalAlign=top;align=center;outlineConnect=0;" vertex="1" parent="1">
          <mxGeometry x="594" y="570.75" width="101" height="50" as="geometry" />
        </mxCell>
        <mxCell id="mUKIcsrmBRNox3fBGK3o-13" value="" style="shape=mxgraph.cisco.switches.workgroup_switch;html=1;pointerEvents=1;dashed=0;fillColor=#08c2cc;strokeColor=#ffffff;strokeWidth=2;verticalLabelPosition=bottom;verticalAlign=top;align=center;outlineConnect=0;" vertex="1" parent="1">
          <mxGeometry x="594" y="670.75" width="101" height="50" as="geometry" />
        </mxCell>
        <mxCell id="mUKIcsrmBRNox3fBGK3o-23" value="" style="shape=mxgraph.cisco.switches.workgroup_switch;html=1;pointerEvents=1;dashed=0;fillColor=#036897;strokeColor=#ffffff;strokeWidth=2;verticalLabelPosition=bottom;verticalAlign=top;align=center;outlineConnect=0;" vertex="1" parent="1">
          <mxGeometry x="914" y="190" width="101" height="50" as="geometry" />
        </mxCell>
        <mxCell id="mUKIcsrmBRNox3fBGK3o-24" value="" style="shape=mxgraph.cisco.switches.workgroup_switch;html=1;pointerEvents=1;dashed=0;fillColor=#036897;strokeColor=#ffffff;strokeWidth=2;verticalLabelPosition=bottom;verticalAlign=top;align=center;outlineConnect=0;" vertex="1" parent="1">
          <mxGeometry x="914" y="291.5" width="101" height="50" as="geometry" />
        </mxCell>
        <mxCell id="mUKIcsrmBRNox3fBGK3o-25" value="" style="shape=mxgraph.cisco.switches.workgroup_switch;html=1;pointerEvents=1;dashed=0;fillColor=#036897;strokeColor=#ffffff;strokeWidth=2;verticalLabelPosition=bottom;verticalAlign=top;align=center;outlineConnect=0;" vertex="1" parent="1">
          <mxGeometry x="914" y="390" width="101" height="50" as="geometry" />
        </mxCell>
        <mxCell id="mUKIcsrmBRNox3fBGK3o-26" value="" style="shape=mxgraph.cisco.switches.workgroup_switch;html=1;pointerEvents=1;dashed=0;strokeColor=#ffffff;strokeWidth=2;verticalLabelPosition=bottom;verticalAlign=top;align=center;outlineConnect=0;fillColor=#036897;" vertex="1" parent="1">
          <mxGeometry x="910" y="560" width="101" height="50" as="geometry" />
        </mxCell>
        <mxCell id="mUKIcsrmBRNox3fBGK3o-27" value="" style="shape=mxgraph.cisco.switches.workgroup_switch;html=1;pointerEvents=1;dashed=0;fillColor=#036897;strokeColor=#ffffff;strokeWidth=2;verticalLabelPosition=bottom;verticalAlign=top;align=center;outlineConnect=0;" vertex="1" parent="1">
          <mxGeometry x="910" y="661.5" width="101" height="50" as="geometry" />
        </mxCell>
        <mxCell id="mUKIcsrmBRNox3fBGK3o-28" value="" style="shape=mxgraph.cisco.switches.workgroup_switch;html=1;pointerEvents=1;dashed=0;fillColor=#036897;strokeColor=#ffffff;strokeWidth=2;verticalLabelPosition=bottom;verticalAlign=top;align=center;outlineConnect=0;" vertex="1" parent="1">
          <mxGeometry x="910" y="760" width="101" height="50" as="geometry" />
        </mxCell>
        <mxCell id="mUKIcsrmBRNox3fBGK3o-29" value="&lt;font style=&quot;vertical-align: inherit ; font-size: 90px&quot;&gt;&lt;font style=&quot;vertical-align: inherit ; font-size: 90px&quot; color=&quot;#08c2cc&quot;&gt;&lt;font style=&quot;vertical-align: inherit ; font-size: 90px&quot;&gt;&lt;font style=&quot;vertical-align: inherit ; font-size: 90px&quot;&gt;...&lt;/font&gt;&lt;/font&gt;&lt;/font&gt;&lt;/font&gt;" style="text;html=1;align=center;verticalAlign=middle;resizable=0;points=[];autosize=1;strokeColor=none;" vertex="1" parent="1">
          <mxGeometry x="600" y="457.75" width="90" height="50" as="geometry" />
        </mxCell>
        <mxCell id="mUKIcsrmBRNox3fBGK3o-30" value="" style="shape=mxgraph.cisco.servers.file_server;html=1;pointerEvents=1;dashed=0;fillColor=#036897;strokeColor=#ffffff;strokeWidth=2;verticalLabelPosition=bottom;verticalAlign=top;align=center;outlineConnect=0;" vertex="1" parent="1">
          <mxGeometry x="145" y="414" width="85" height="110" as="geometry" />
        </mxCell>
        <mxCell id="mUKIcsrmBRNox3fBGK3o-31" value="" style="shape=mxgraph.cisco.servers.file_server;html=1;pointerEvents=1;dashed=0;fillColor=#036897;strokeColor=#ffffff;strokeWidth=2;verticalLabelPosition=bottom;verticalAlign=top;align=center;outlineConnect=0;" vertex="1" parent="1">
          <mxGeometry x="200" y="569.5" width="85" height="110" as="geometry" />
        </mxCell>
        <mxCell id="mUKIcsrmBRNox3fBGK3o-32" value="" style="shape=mxgraph.cisco.storage.cloud;html=1;pointerEvents=1;dashed=1;fillColor=#0ce9f5;strokeWidth=2;verticalLabelPosition=bottom;verticalAlign=top;align=center;outlineConnect=0;" vertex="1" parent="1">
          <mxGeometry x="20" y="10" width="220" height="121" as="geometry" />
        </mxCell>
        <mxCell id="mUKIcsrmBRNox3fBGK3o-34" value="&lt;font&gt;&lt;span style=&quot;font-size: 90px&quot;&gt;&lt;font style=&quot;vertical-align: inherit&quot;&gt;&lt;font style=&quot;vertical-align: inherit&quot;&gt;...&lt;/font&gt;&lt;/font&gt;&lt;/span&gt;&lt;/font&gt;" style="text;html=1;align=center;verticalAlign=middle;resizable=0;points=[];autosize=1;strokeColor=none;fontColor=#036897;" vertex="1" parent="1">
          <mxGeometry x="910" y="457" width="90" height="50" as="geometry" />
        </mxCell>
        <mxCell id="mUKIcsrmBRNox3fBGK3o-44" value="" style="endArrow=none;dashed=1;html=1;fontColor=#036897;exitX=0.75;exitY=1;exitDx=0;exitDy=0;entryX=0.75;entryY=0;entryDx=0;entryDy=0;" edge="1" parent="1">
          <mxGeometry width="50" height="50" relative="1" as="geometry">
            <mxPoint x="862.5" y="820.0000000000002" as="sourcePoint" />
            <mxPoint x="862.5" y="170" as="targetPoint" />
          </mxGeometry>
        </mxCell>
        <mxCell id="mUKIcsrmBRNox3fBGK3o-45" value="" style="endArrow=none;html=1;fontColor=#036897;entryX=0.5;entryY=0.99;entryDx=0;entryDy=0;entryPerimeter=0;exitX=0.5;exitY=0;exitDx=0;exitDy=0;exitPerimeter=0;gradientColor=#7ea6e0;fillColor=#dae8fc;strokeColor=#036897;strokeWidth=3;" edge="1" parent="1" source="mUKIcsrmBRNox3fBGK3o-1" target="mUKIcsrmBRNox3fBGK3o-78">
          <mxGeometry width="50" height="50" relative="1" as="geometry">
            <mxPoint x="240" y="450" as="sourcePoint" />
            <mxPoint x="343" y="95.24000000000001" as="targetPoint" />
          </mxGeometry>
        </mxCell>
        <mxCell id="mUKIcsrmBRNox3fBGK3o-46" value="" style="endArrow=none;html=1;fontColor=#036897;entryX=0.5;entryY=0.99;entryDx=0;entryDy=0;entryPerimeter=0;gradientColor=#7ea6e0;fillColor=#dae8fc;strokeColor=#036897;strokeWidth=3;" edge="1" parent="1" target="mUKIcsrmBRNox3fBGK3o-32">
          <mxGeometry width="50" height="50" relative="1" as="geometry">
            <mxPoint x="220" y="240" as="sourcePoint" />
            <mxPoint x="353" y="105.24000000000012" as="targetPoint" />
          </mxGeometry>
        </mxCell>
        <mxCell id="mUKIcsrmBRNox3fBGK3o-51" value="" style="endArrow=none;html=1;fontColor=#036897;strokeColor=#036897;strokeWidth=4;" edge="1" parent="1">
          <mxGeometry width="50" height="50" relative="1" as="geometry">
            <mxPoint x="90" y="240" as="sourcePoint" />
            <mxPoint x="340" y="240" as="targetPoint" />
          </mxGeometry>
        </mxCell>
        <mxCell id="mUKIcsrmBRNox3fBGK3o-52" value="" style="endArrow=none;html=1;fontColor=#036897;entryX=0.5;entryY=0.98;entryDx=0;entryDy=0;entryPerimeter=0;exitX=0.5;exitY=0;exitDx=0;exitDy=0;exitPerimeter=0;gradientColor=#7ea6e0;fillColor=#dae8fc;strokeColor=#036897;strokeWidth=3;" edge="1" parent="1" source="mUKIcsrmBRNox3fBGK3o-4" target="mUKIcsrmBRNox3fBGK3o-3">
          <mxGeometry width="50" height="50" relative="1" as="geometry">
            <mxPoint x="230" y="250" as="sourcePoint" />
            <mxPoint x="353" y="105.24000000000012" as="targetPoint" />
          </mxGeometry>
        </mxCell>
        <mxCell id="mUKIcsrmBRNox3fBGK3o-53" value="" style="endArrow=none;html=1;fontColor=#036897;exitX=0.5;exitY=0;exitDx=0;exitDy=0;exitPerimeter=0;gradientColor=#7ea6e0;fillColor=#dae8fc;strokeColor=#036897;strokeWidth=3;" edge="1" parent="1" source="mUKIcsrmBRNox3fBGK3o-11" target="mUKIcsrmBRNox3fBGK3o-10">
          <mxGeometry width="50" height="50" relative="1" as="geometry">
            <mxPoint x="480.4999999999998" y="530.7499999999999" as="sourcePoint" />
            <mxPoint x="480.4999999999998" y="479.7499999999999" as="targetPoint" />
          </mxGeometry>
        </mxCell>
        <mxCell id="mUKIcsrmBRNox3fBGK3o-55" value="" style="endArrow=none;html=1;fontColor=#036897;entryX=0.5;entryY=0.98;entryDx=0;entryDy=0;entryPerimeter=0;gradientColor=#7ea6e0;fillColor=#dae8fc;strokeColor=#036897;exitX=0.5;exitY=0;exitDx=0;exitDy=0;exitPerimeter=0;strokeWidth=3;" edge="1" parent="1" source="mUKIcsrmBRNox3fBGK3o-13" target="mUKIcsrmBRNox3fBGK3o-12">
          <mxGeometry width="50" height="50" relative="1" as="geometry">
            <mxPoint x="500" y="541" as="sourcePoint" />
            <mxPoint x="490.4999999999998" y="489.7499999999999" as="targetPoint" />
          </mxGeometry>
        </mxCell>
        <mxCell id="mUKIcsrmBRNox3fBGK3o-61" value="&lt;span style=&quot;font-size: 40px&quot;&gt;&lt;font style=&quot;vertical-align: inherit ; font-size: 30px&quot;&gt;&lt;font style=&quot;vertical-align: inherit ; font-size: 30px&quot;&gt;&lt;font style=&quot;vertical-align: inherit ; font-size: 30px&quot;&gt;&lt;font style=&quot;vertical-align: inherit ; font-size: 30px&quot;&gt;S1&lt;/font&gt;&lt;/font&gt;&lt;/font&gt;&lt;/font&gt;&lt;/span&gt;" style="text;html=1;strokeColor=none;fillColor=none;align=center;verticalAlign=middle;whiteSpace=wrap;rounded=0;dashed=1;fontColor=#036897;fontStyle=2" vertex="1" parent="1">
          <mxGeometry x="105" y="530" width="40" height="50" as="geometry" />
        </mxCell>
        <mxCell id="mUKIcsrmBRNox3fBGK3o-62" value="&lt;span style=&quot;font-size: 40px&quot;&gt;&lt;font style=&quot;vertical-align: inherit&quot;&gt;&lt;font style=&quot;vertical-align: inherit&quot;&gt;&lt;font style=&quot;vertical-align: inherit ; font-size: 30px&quot;&gt;&lt;font style=&quot;vertical-align: inherit ; font-size: 30px&quot;&gt;&lt;font style=&quot;vertical-align: inherit ; font-size: 30px&quot;&gt;&lt;font style=&quot;vertical-align: inherit ; font-size: 30px&quot;&gt;S2&lt;/font&gt;&lt;/font&gt;&lt;/font&gt;&lt;/font&gt;&lt;/font&gt;&lt;/font&gt;&lt;/span&gt;" style="text;html=1;strokeColor=none;fillColor=none;align=center;verticalAlign=middle;whiteSpace=wrap;rounded=0;dashed=1;fontColor=#036897;fontStyle=2" vertex="1" parent="1">
          <mxGeometry x="145" y="661.5" width="40" height="50" as="geometry" />
        </mxCell>
        <mxCell id="mUKIcsrmBRNox3fBGK3o-63" value="&lt;span style=&quot;font-size: 40px&quot;&gt;&lt;font style=&quot;vertical-align: inherit&quot;&gt;&lt;font style=&quot;vertical-align: inherit&quot;&gt;&lt;font style=&quot;vertical-align: inherit ; font-size: 30px&quot;&gt;&lt;font style=&quot;vertical-align: inherit ; font-size: 30px&quot;&gt;&lt;font style=&quot;vertical-align: inherit ; font-size: 30px&quot;&gt;&lt;font style=&quot;vertical-align: inherit ; font-size: 30px&quot;&gt;C1&lt;/font&gt;&lt;/font&gt;&lt;/font&gt;&lt;/font&gt;&lt;/font&gt;&lt;/font&gt;&lt;/span&gt;" style="text;html=1;strokeColor=none;fillColor=none;align=center;verticalAlign=middle;whiteSpace=wrap;rounded=0;dashed=1;fontColor=#036897;fontStyle=2" vertex="1" parent="1">
          <mxGeometry x="450.5" y="360" width="40" height="50" as="geometry" />
        </mxCell>
        <mxCell id="mUKIcsrmBRNox3fBGK3o-64" value="&lt;span style=&quot;font-size: 40px&quot;&gt;&lt;font style=&quot;vertical-align: inherit&quot;&gt;&lt;font style=&quot;vertical-align: inherit&quot;&gt;&lt;font style=&quot;vertical-align: inherit&quot;&gt;&lt;font style=&quot;vertical-align: inherit&quot;&gt;&lt;font style=&quot;vertical-align: inherit ; font-size: 30px&quot;&gt;&lt;font style=&quot;vertical-align: inherit ; font-size: 30px&quot;&gt;&lt;font style=&quot;vertical-align: inherit ; font-size: 30px&quot;&gt;&lt;font style=&quot;vertical-align: inherit ; font-size: 30px&quot;&gt;&lt;font style=&quot;vertical-align: inherit&quot;&gt;&lt;font style=&quot;vertical-align: inherit&quot;&gt;C2&lt;/font&gt;&lt;/font&gt;&lt;/font&gt;&lt;/font&gt;&lt;/font&gt;&lt;/font&gt;&lt;/font&gt;&lt;/font&gt;&lt;/font&gt;&lt;/font&gt;&lt;/span&gt;" style="text;html=1;strokeColor=none;fillColor=none;align=center;verticalAlign=middle;whiteSpace=wrap;rounded=0;dashed=1;fontColor=#036897;fontStyle=2" vertex="1" parent="1">
          <mxGeometry x="450.5" y="580" width="40" height="50" as="geometry" />
        </mxCell>
        <mxCell id="mUKIcsrmBRNox3fBGK3o-65" value="&lt;font style=&quot;vertical-align: inherit&quot;&gt;&lt;font style=&quot;vertical-align: inherit ; font-size: 30px&quot;&gt;R&lt;/font&gt;&lt;/font&gt;" style="text;html=1;align=center;verticalAlign=middle;resizable=0;points=[];autosize=1;strokeColor=none;fontColor=#036897;" vertex="1" parent="1">
          <mxGeometry x="120" y="295" width="40" height="30" as="geometry" />
        </mxCell>
        <mxCell id="mUKIcsrmBRNox3fBGK3o-66" value="&lt;span style=&quot;font-size: 40px&quot;&gt;&lt;font style=&quot;vertical-align: inherit&quot;&gt;&lt;font style=&quot;vertical-align: inherit&quot;&gt;&lt;font style=&quot;vertical-align: inherit ; font-size: 30px&quot;&gt;&lt;font style=&quot;vertical-align: inherit ; font-size: 30px&quot;&gt;&lt;font style=&quot;vertical-align: inherit ; font-size: 30px&quot;&gt;&lt;font style=&quot;vertical-align: inherit ; font-size: 30px&quot;&gt;&lt;font style=&quot;vertical-align: inherit&quot;&gt;&lt;font style=&quot;vertical-align: inherit&quot;&gt;D1-D2&lt;/font&gt;&lt;/font&gt;&lt;/font&gt;&lt;/font&gt;&lt;/font&gt;&lt;/font&gt;&lt;/font&gt;&lt;/font&gt;&lt;/span&gt;" style="text;html=1;strokeColor=none;fillColor=none;align=center;verticalAlign=middle;whiteSpace=wrap;rounded=0;dashed=1;fontColor=#036897;fontStyle=2" vertex="1" parent="1">
          <mxGeometry x="594" y="220" width="100" height="50" as="geometry" />
        </mxCell>
        <mxCell id="mUKIcsrmBRNox3fBGK3o-68" value="&lt;span style=&quot;font-size: 40px&quot;&gt;&lt;font style=&quot;vertical-align: inherit&quot;&gt;&lt;font style=&quot;vertical-align: inherit&quot;&gt;&lt;font style=&quot;vertical-align: inherit ; font-size: 30px&quot;&gt;&lt;font style=&quot;vertical-align: inherit ; font-size: 30px&quot;&gt;&lt;font style=&quot;vertical-align: inherit ; font-size: 30px&quot;&gt;&lt;font style=&quot;vertical-align: inherit ; font-size: 30px&quot;&gt;&lt;font style=&quot;vertical-align: inherit&quot;&gt;&lt;font style=&quot;vertical-align: inherit&quot;&gt;&lt;font style=&quot;vertical-align: inherit&quot;&gt;&lt;font style=&quot;vertical-align: inherit&quot;&gt;D18-D19&lt;/font&gt;&lt;/font&gt;&lt;/font&gt;&lt;/font&gt;&lt;/font&gt;&lt;/font&gt;&lt;/font&gt;&lt;/font&gt;&lt;/font&gt;&lt;/font&gt;&lt;/span&gt;" style="text;html=1;strokeColor=none;fillColor=none;align=center;verticalAlign=middle;whiteSpace=wrap;rounded=0;dashed=1;fontColor=#036897;fontStyle=2" vertex="1" parent="1">
          <mxGeometry x="570" y="720.75" width="130" height="50" as="geometry" />
        </mxCell>
        <mxCell id="mUKIcsrmBRNox3fBGK3o-70" value="&lt;span style=&quot;font-size: 40px&quot;&gt;&lt;font style=&quot;vertical-align: inherit&quot;&gt;&lt;font style=&quot;vertical-align: inherit&quot;&gt;&lt;font style=&quot;vertical-align: inherit ; font-size: 30px&quot;&gt;&lt;font style=&quot;vertical-align: inherit ; font-size: 30px&quot;&gt;&lt;font style=&quot;vertical-align: inherit ; font-size: 30px&quot;&gt;&lt;font style=&quot;vertical-align: inherit ; font-size: 30px&quot;&gt;&lt;font style=&quot;vertical-align: inherit&quot;&gt;&lt;font style=&quot;vertical-align: inherit&quot;&gt;&lt;font style=&quot;vertical-align: inherit&quot;&gt;&lt;font style=&quot;vertical-align: inherit&quot;&gt;1 этаж&lt;/font&gt;&lt;/font&gt;&lt;/font&gt;&lt;/font&gt;&lt;/font&gt;&lt;/font&gt;&lt;/font&gt;&lt;/font&gt;&lt;/font&gt;&lt;/font&gt;&lt;/span&gt;" style="text;html=1;strokeColor=none;fillColor=none;align=center;verticalAlign=middle;whiteSpace=wrap;rounded=0;dashed=1;fontColor=#036897;fontStyle=2" vertex="1" parent="1">
          <mxGeometry x="1030" y="140" width="120" height="50" as="geometry" />
        </mxCell>
        <mxCell id="mUKIcsrmBRNox3fBGK3o-71" value="&lt;span style=&quot;font-size: 40px&quot;&gt;&lt;font style=&quot;vertical-align: inherit&quot;&gt;&lt;font style=&quot;vertical-align: inherit&quot;&gt;&lt;font style=&quot;vertical-align: inherit ; font-size: 30px&quot;&gt;&lt;font style=&quot;vertical-align: inherit ; font-size: 30px&quot;&gt;&lt;font style=&quot;vertical-align: inherit ; font-size: 30px&quot;&gt;&lt;font style=&quot;vertical-align: inherit ; font-size: 30px&quot;&gt;&lt;font style=&quot;vertical-align: inherit&quot;&gt;&lt;font style=&quot;vertical-align: inherit&quot;&gt;&lt;font style=&quot;vertical-align: inherit&quot;&gt;&lt;font style=&quot;vertical-align: inherit&quot;&gt;&lt;font style=&quot;vertical-align: inherit&quot;&gt;&lt;font style=&quot;vertical-align: inherit&quot;&gt;9 этаж&lt;/font&gt;&lt;/font&gt;&lt;/font&gt;&lt;/font&gt;&lt;/font&gt;&lt;/font&gt;&lt;/font&gt;&lt;/font&gt;&lt;/font&gt;&lt;/font&gt;&lt;/font&gt;&lt;/font&gt;&lt;/span&gt;" style="text;html=1;strokeColor=none;fillColor=none;align=center;verticalAlign=middle;whiteSpace=wrap;rounded=0;dashed=1;fontColor=#036897;fontStyle=2" vertex="1" parent="1">
          <mxGeometry x="1020" y="760" width="120" height="50" as="geometry" />
        </mxCell>
        <mxCell id="mUKIcsrmBRNox3fBGK3o-72" value="&lt;span style=&quot;font-size: 30px&quot;&gt;&lt;font style=&quot;vertical-align: inherit&quot;&gt;&lt;font style=&quot;vertical-align: inherit&quot;&gt;Sw1 - Sw3&lt;/font&gt;&lt;/font&gt;&lt;/span&gt;" style="text;html=1;strokeColor=none;fillColor=none;align=center;verticalAlign=middle;whiteSpace=wrap;rounded=0;dashed=1;fontColor=#036897;fontStyle=2" vertex="1" parent="1">
          <mxGeometry x="1020" y="230" width="120" height="50" as="geometry" />
        </mxCell>
        <mxCell id="mUKIcsrmBRNox3fBGK3o-73" value="&lt;span style=&quot;font-size: 30px&quot;&gt;&lt;font style=&quot;vertical-align: inherit&quot;&gt;&lt;font style=&quot;vertical-align: inherit&quot;&gt;&lt;font style=&quot;vertical-align: inherit&quot;&gt;&lt;font style=&quot;vertical-align: inherit&quot;&gt;Sw25 - Sw27&lt;/font&gt;&lt;/font&gt;&lt;/font&gt;&lt;/font&gt;&lt;/span&gt;" style="text;html=1;strokeColor=none;fillColor=none;align=center;verticalAlign=middle;whiteSpace=wrap;rounded=0;dashed=1;fontColor=#036897;fontStyle=2" vertex="1" parent="1">
          <mxGeometry x="1020" y="611.5" width="120" height="50" as="geometry" />
        </mxCell>
        <mxCell id="mUKIcsrmBRNox3fBGK3o-74" value="&lt;font style=&quot;vertical-align: inherit ; font-size: 25px&quot;&gt;&lt;font style=&quot;vertical-align: inherit ; font-size: 25px&quot;&gt;&lt;font style=&quot;vertical-align: inherit ; font-size: 25px&quot;&gt;&lt;font style=&quot;vertical-align: inherit ; font-size: 25px&quot;&gt;Интернет провайдер 1&amp;nbsp;&lt;/font&gt;&lt;/font&gt;&lt;/font&gt;&lt;/font&gt;" style="text;html=1;strokeColor=none;fillColor=none;align=center;verticalAlign=middle;whiteSpace=wrap;rounded=0;dashed=1;fontColor=#036897;" vertex="1" parent="1">
          <mxGeometry x="45" y="60" width="190" height="20" as="geometry" />
        </mxCell>
        <mxCell id="mUKIcsrmBRNox3fBGK3o-78" value="" style="shape=mxgraph.cisco.storage.cloud;html=1;pointerEvents=1;dashed=1;fillColor=#0ce9f5;strokeWidth=2;verticalLabelPosition=bottom;verticalAlign=top;align=center;outlineConnect=0;" vertex="1" parent="1">
          <mxGeometry x="270" y="9.5" width="220" height="121" as="geometry" />
        </mxCell>
        <mxCell id="mUKIcsrmBRNox3fBGK3o-79" value="&lt;font style=&quot;vertical-align: inherit ; font-size: 25px&quot;&gt;&lt;font style=&quot;vertical-align: inherit ; font-size: 25px&quot;&gt;&lt;font style=&quot;vertical-align: inherit ; font-size: 25px&quot;&gt;&lt;font style=&quot;vertical-align: inherit ; font-size: 25px&quot;&gt;&lt;font style=&quot;vertical-align: inherit&quot;&gt;&lt;font style=&quot;vertical-align: inherit&quot;&gt;Интернет провайдер 2&lt;/font&gt;&lt;/font&gt;&lt;/font&gt;&lt;/font&gt;&lt;/font&gt;&lt;/font&gt;" style="text;html=1;strokeColor=none;fillColor=none;align=center;verticalAlign=middle;whiteSpace=wrap;rounded=0;dashed=1;fontColor=#036897;" vertex="1" parent="1">
          <mxGeometry x="286" y="59.5" width="190" height="20" as="geometry" />
        </mxCell>
      </root>
    </mxGraphModel>
  </diagram>
</mxfile>
